<svg xmlns="http://www.w3.org/2000/svg" width="150" height="86" viewBox="0 0 150 86"><defs>
<linearGradient id="stone" x2=".3" y2="1"><stop stop-color="#f3dfaa"/><stop offset="1" stop-color="#bca47a"/></linearGradient>
<linearGradient id="roof" x2=".6" y2="1"><stop stop-color="#5493a4"/><stop offset="1" stop-color="#27475b"/></linearGradient>
<linearGradient id="leaf" x2=".6" y2="1"><stop stop-color="#afc36b"/><stop offset=".45" stop-color="#608c4c"/><stop offset="1" stop-color="#2d5741"/></linearGradient>
<linearGradient id="water" x2="0" y2="1"><stop stop-color="#84d5ca"/><stop offset="1" stop-color="#367c8a"/></linearGradient>
</defs><ellipse cx="84" cy="72" rx="61" ry="14.639999999999999" fill="#233d30" fill-opacity="0.188" stroke="none" stroke-width="1"/><ellipse cx="75" cy="72" rx="39.65" ry="7.930000000000001" fill="#243229" fill-opacity="0.251" stroke="none" stroke-width="1"/><path d="M27,38 l5,34 l-6,0 l-7,-34 Z" fill="#455647" stroke="#29312f" stroke-width="1.5" stroke-linejoin="round" stroke-linecap="round" /><path d="M121,38 l5,34 l-6,0 l-7,-34 Z" fill="#455647" stroke="#29312f" stroke-width="1.5" stroke-linejoin="round" stroke-linecap="round" /><path d="M13,22 L137,24 L137,32 L13,30 Z" fill="#ae8555" stroke="#29312f" stroke-width="1.5" stroke-linejoin="round" stroke-linecap="round" /><path d="M13,33 L137,35 L137,43 L13,41 Z" fill="#ae8555" stroke="#29312f" stroke-width="1.5" stroke-linejoin="round" stroke-linecap="round" /><path d="M10,55 L125,56 L141,65 L26,65 Z" fill="#ca9c64" stroke="#29312f" stroke-width="1.5" stroke-linejoin="round" stroke-linecap="round" /><path d="M26,65 L141,65 L141,70 L26,70 Z" fill="#785b3e" stroke="#29312f" stroke-width="1.5" stroke-linejoin="round" stroke-linecap="round" /><path d="M23,23 L23,54" fill="none" stroke="#59604a" stroke-width="4" stroke-linejoin="round" stroke-linecap="round" /><path d="M129,23 L129,54" fill="none" stroke="#59604a" stroke-width="4" stroke-linejoin="round" stroke-linecap="round" /></svg>
