<svg xmlns="http://www.w3.org/2000/svg" width="100" height="76" viewBox="0 0 100 76"><defs>
<linearGradient id="stone" x2=".3" y2="1"><stop stop-color="#f3dfaa"/><stop offset="1" stop-color="#bca47a"/></linearGradient>
<linearGradient id="roof" x2=".6" y2="1"><stop stop-color="#5493a4"/><stop offset="1" stop-color="#27475b"/></linearGradient>
<linearGradient id="leaf" x2=".6" y2="1"><stop stop-color="#afc36b"/><stop offset=".45" stop-color="#608c4c"/><stop offset="1" stop-color="#2d5741"/></linearGradient>
<linearGradient id="water" x2="0" y2="1"><stop stop-color="#84d5ca"/><stop offset="1" stop-color="#367c8a"/></linearGradient>
</defs><ellipse cx="58" cy="66" rx="43" ry="10.32" fill="#233d30" fill-opacity="0.188" stroke="none" stroke-width="1"/><ellipse cx="49" cy="66" rx="27.95" ry="5.59" fill="#243229" fill-opacity="0.251" stroke="none" stroke-width="1"/><path d="M13,28 L71,17 L88,31 L87,60 L31,70 L12,56 Z" fill="#bc9c56" stroke="#29312f" stroke-width="1.5" stroke-linejoin="round" stroke-linecap="round" /><path d="M13,28 L31,40 L87,31 L71,17 Z" fill="#dbc37f" stroke="#29312f" stroke-width="1" stroke-linejoin="round" stroke-linecap="round" /><path d="M31,40 L87,31 L87,60 L31,70 Z" fill="#c8aa61" stroke="#29312f" stroke-width="1" stroke-linejoin="round" stroke-linecap="round" /><path d="M35,43 L83,34" fill="none" stroke="#a88945" stroke-width="0.8" stroke-linejoin="round" stroke-linecap="round" /><path d="M14,31 L27,39" fill="none" stroke="#9f8344" stroke-width="0.8" stroke-linejoin="round" stroke-linecap="round" /><path d="M35,51 L83,42" fill="none" stroke="#a88945" stroke-width="0.8" stroke-linejoin="round" stroke-linecap="round" /><path d="M14,39 L27,47" fill="none" stroke="#9f8344" stroke-width="0.8" stroke-linejoin="round" stroke-linecap="round" /><path d="M35,59 L83,50" fill="none" stroke="#a88945" stroke-width="0.8" stroke-linejoin="round" stroke-linecap="round" /><path d="M14,47 L27,55" fill="none" stroke="#9f8344" stroke-width="0.8" stroke-linejoin="round" stroke-linecap="round" /><path d="M35,66 L83,57" fill="none" stroke="#a88945" stroke-width="0.8" stroke-linejoin="round" stroke-linecap="round" /><path d="M14,54 L27,62" fill="none" stroke="#9f8344" stroke-width="0.8" stroke-linejoin="round" stroke-linecap="round" /><path d="M44,24 l6,5 l0,34" fill="none" stroke="#796b43" stroke-width="3" stroke-linejoin="round" stroke-linecap="round" /><path d="M71,24 l6,5 l0,34" fill="none" stroke="#796b43" stroke-width="3" stroke-linejoin="round" stroke-linecap="round" /></svg>
