<svg xmlns="http://www.w3.org/2000/svg" width="96" height="76" viewBox="0 0 96 76"><defs>
<linearGradient id="stone" x2=".3" y2="1"><stop stop-color="#f3dfaa"/><stop offset="1" stop-color="#bca47a"/></linearGradient>
<linearGradient id="roof" x2=".6" y2="1"><stop stop-color="#5493a4"/><stop offset="1" stop-color="#27475b"/></linearGradient>
<linearGradient id="leaf" x2=".6" y2="1"><stop stop-color="#afc36b"/><stop offset=".45" stop-color="#608c4c"/><stop offset="1" stop-color="#2d5741"/></linearGradient>
<linearGradient id="water" x2="0" y2="1"><stop stop-color="#84d5ca"/><stop offset="1" stop-color="#367c8a"/></linearGradient>
</defs><ellipse cx="54" cy="65" rx="36" ry="8.64" fill="#233d30" fill-opacity="0.188" stroke="none" stroke-width="1"/><ellipse cx="45" cy="65" rx="23.400000000000002" ry="4.68" fill="#243229" fill-opacity="0.251" stroke="none" stroke-width="1"/><path d="M10,49 L24,21 L54,12 L77,26 L85,56 L63,67 L26,63 Z" fill="#707c76" stroke="#364742" stroke-width="2" stroke-linejoin="round" stroke-linecap="round" /><path d="M10,49 L26,37 L54,12 L77,26 L60,45 L36,48 Z" fill="#b9bfb0" stroke="#53665b" stroke-width="1" stroke-linejoin="round" stroke-linecap="round" /><path d="M36,48 L60,45 L63,67 L26,63 Z" fill="#89978a" stroke="#56675f" stroke-width="1" stroke-linejoin="round" stroke-linecap="round" /><path d="M27,31 l16,-8 l-7,12 m22,13 l6,6 l-1,9" fill="none" stroke="#465b52" stroke-width="1.5" stroke-linejoin="round" stroke-linecap="round" /><path d="M14,55 l13,-4 l8,7 l-5,6 l-12,-3 M64,24 l10,3 l-6,7 l-12,-3" fill="#687f4c" stroke="none" stroke-width="1.5" stroke-linejoin="round" stroke-linecap="round" /></svg>
