<svg xmlns="http://www.w3.org/2000/svg" width="250" height="200" viewBox="0 0 250 200"><defs>
<linearGradient id="stone" x2=".3" y2="1"><stop stop-color="#f3dfaa"/><stop offset="1" stop-color="#bca47a"/></linearGradient>
<linearGradient id="roof" x2=".6" y2="1"><stop stop-color="#5493a4"/><stop offset="1" stop-color="#27475b"/></linearGradient>
<linearGradient id="leaf" x2=".6" y2="1"><stop stop-color="#afc36b"/><stop offset=".45" stop-color="#608c4c"/><stop offset="1" stop-color="#2d5741"/></linearGradient>
<linearGradient id="water" x2="0" y2="1"><stop stop-color="#84d5ca"/><stop offset="1" stop-color="#367c8a"/></linearGradient>
</defs><ellipse cx="135" cy="171" rx="103" ry="24.72" fill="#233d30" fill-opacity="0.188" stroke="none" stroke-width="1"/><ellipse cx="126" cy="171" rx="66.95" ry="13.39" fill="#243229" fill-opacity="0.251" stroke="none" stroke-width="1"/><path d="M24,158 L135,127 L225,158 L133,189 Z" fill="#a4ad8c" stroke="#647761" stroke-width="1" stroke-linejoin="round" stroke-linecap="round" /><path d="M29,158 L29,78 L39,69 L43,80 L56,74 L56,158 Z" fill="#a2ae98" stroke="#29312f" stroke-width="2" stroke-linejoin="round" stroke-linecap="round" /><path d="M45,78 L56,74 L56,158 L45,162 Z" fill="#738c7b" stroke="none" stroke-width="1.5" stroke-linejoin="round" stroke-linecap="round" /><path d="M30,93 L44,95" fill="none" stroke="#617467" stroke-width="1" stroke-linejoin="round" stroke-linecap="round" /><path d="M30,111 L44,113" fill="none" stroke="#617467" stroke-width="1" stroke-linejoin="round" stroke-linecap="round" /><path d="M30,129 L44,131" fill="none" stroke="#617467" stroke-width="1" stroke-linejoin="round" stroke-linecap="round" /><path d="M30,147 L44,149" fill="none" stroke="#617467" stroke-width="1" stroke-linejoin="round" stroke-linecap="round" /><path d="M29,149 q10,-17 5,-32 m0,14 l12,-5" fill="none" stroke="#52774c" stroke-width="4" stroke-linejoin="round" stroke-linecap="round" /><path d="M167,157 L167,40 L177,31 L181,42 L194,36 L194,157 Z" fill="#a2ae98" stroke="#29312f" stroke-width="2" stroke-linejoin="round" stroke-linecap="round" /><path d="M183,40 L194,36 L194,157 L183,161 Z" fill="#738c7b" stroke="none" stroke-width="1.5" stroke-linejoin="round" stroke-linecap="round" /><path d="M168,55 L182,57" fill="none" stroke="#617467" stroke-width="1" stroke-linejoin="round" stroke-linecap="round" /><path d="M168,73 L182,75" fill="none" stroke="#617467" stroke-width="1" stroke-linejoin="round" stroke-linecap="round" /><path d="M168,91 L182,93" fill="none" stroke="#617467" stroke-width="1" stroke-linejoin="round" stroke-linecap="round" /><path d="M168,109 L182,111" fill="none" stroke="#617467" stroke-width="1" stroke-linejoin="round" stroke-linecap="round" /><path d="M168,127 L182,129" fill="none" stroke="#617467" stroke-width="1" stroke-linejoin="round" stroke-linecap="round" /><path d="M168,145 L182,147" fill="none" stroke="#617467" stroke-width="1" stroke-linejoin="round" stroke-linecap="round" /><path d="M167,148 q10,-17 5,-32 m0,14 l12,-5" fill="none" stroke="#52774c" stroke-width="4" stroke-linejoin="round" stroke-linecap="round" /><path d="M90,171 L90,109 L100,100 L104,111 L117,105 L117,171 Z" fill="#a2ae98" stroke="#29312f" stroke-width="2" stroke-linejoin="round" stroke-linecap="round" /><path d="M106,109 L117,105 L117,171 L106,175 Z" fill="#738c7b" stroke="none" stroke-width="1.5" stroke-linejoin="round" stroke-linecap="round" /><path d="M91,124 L105,126" fill="none" stroke="#617467" stroke-width="1" stroke-linejoin="round" stroke-linecap="round" /><path d="M91,142 L105,144" fill="none" stroke="#617467" stroke-width="1" stroke-linejoin="round" stroke-linecap="round" /><path d="M91,160 L105,162" fill="none" stroke="#617467" stroke-width="1" stroke-linejoin="round" stroke-linecap="round" /><path d="M90,162 q10,-17 5,-32 m0,14 l12,-5" fill="none" stroke="#52774c" stroke-width="4" stroke-linejoin="round" stroke-linecap="round" /><path d="M31,75 L155,45 L193,49 L192,70 L38,98 Z" fill="#b6bca3" stroke="#29312f" stroke-width="2" stroke-linejoin="round" stroke-linecap="round" /><path d="M41,76 L154,50 M49,89 L155,61" fill="none" stroke="#d5d6b4" stroke-width="2" stroke-linejoin="round" stroke-linecap="round" /><path d="M74,75 l4,11 l-9,7 M144,49 l-5,8 l5,14" fill="none" stroke="#566d61" stroke-width="2" stroke-linejoin="round" stroke-linecap="round" /><ellipse cx="131" cy="150" rx="25" ry="12" fill="#556f68" fill-opacity="1.000" stroke="#29312f" stroke-width="1"/><path d="M117,141 L131,118 L146,142 L133,155 Z" fill="#7ba8a1" stroke="#31565d" stroke-width="2" stroke-linejoin="round" stroke-linecap="round" /><path d="M131,127 l-5,12 l9,0 l-5,10" fill="none" stroke="#bce9d1" stroke-width="2" stroke-linejoin="round" stroke-linecap="round" /><path d="M28,168 l9,-10 l17,4 l-4,12 Z" fill="#8c9c89" stroke="#5c7262" stroke-width="1.5" stroke-linejoin="round" stroke-linecap="round" /><path d="M65,180 l9,-10 l17,4 l-4,12 Z" fill="#8c9c89" stroke="#5c7262" stroke-width="1.5" stroke-linejoin="round" stroke-linecap="round" /><path d="M180,184 l9,-10 l17,4 l-4,12 Z" fill="#8c9c89" stroke="#5c7262" stroke-width="1.5" stroke-linejoin="round" stroke-linecap="round" /><path d="M211,164 l9,-10 l17,4 l-4,12 Z" fill="#8c9c89" stroke="#5c7262" stroke-width="1.5" stroke-linejoin="round" stroke-linecap="round" /></svg>
