<svg xmlns="http://www.w3.org/2000/svg" width="125" height="130" viewBox="0 0 125 130"><defs>
<linearGradient id="stone" x2=".3" y2="1"><stop stop-color="#f3dfaa"/><stop offset="1" stop-color="#bca47a"/></linearGradient>
<linearGradient id="roof" x2=".6" y2="1"><stop stop-color="#5493a4"/><stop offset="1" stop-color="#27475b"/></linearGradient>
<linearGradient id="leaf" x2=".6" y2="1"><stop stop-color="#afc36b"/><stop offset=".45" stop-color="#608c4c"/><stop offset="1" stop-color="#2d5741"/></linearGradient>
<linearGradient id="water" x2="0" y2="1"><stop stop-color="#84d5ca"/><stop offset="1" stop-color="#367c8a"/></linearGradient>
</defs><ellipse cx="71" cy="118" rx="53" ry="12.719999999999999" fill="#233d30" fill-opacity="0.188" stroke="none" stroke-width="1"/><ellipse cx="62" cy="118" rx="34.45" ry="6.890000000000001" fill="#243229" fill-opacity="0.251" stroke="none" stroke-width="1"/><path d="M17,117 L17,37 Q62,-9 106,37 L106,117 L89,117 L89,46 Q62,13 35,46 L35,117 Z" fill="url(#stone)" stroke="#29312f" stroke-width="2" stroke-linejoin="round" stroke-linecap="round" /><path d="M33,39 Q62,4 91,39" fill="none" stroke="#827f65" stroke-width="3" stroke-linejoin="round" stroke-linecap="round" /><path d="M18,58 L33,58" fill="none" stroke="#8d9375" stroke-width="1" stroke-linejoin="round" stroke-linecap="round" /><path d="M91,58 L105,58" fill="none" stroke="#8d9375" stroke-width="1" stroke-linejoin="round" stroke-linecap="round" /><path d="M18,77 L33,77" fill="none" stroke="#8d9375" stroke-width="1" stroke-linejoin="round" stroke-linecap="round" /><path d="M91,77 L105,77" fill="none" stroke="#8d9375" stroke-width="1" stroke-linejoin="round" stroke-linecap="round" /><path d="M18,95 L33,95" fill="none" stroke="#8d9375" stroke-width="1" stroke-linejoin="round" stroke-linecap="round" /><path d="M91,95 L105,95" fill="none" stroke="#8d9375" stroke-width="1" stroke-linejoin="round" stroke-linecap="round" /><path d="M40,107 L62,72 L82,107 L64,121 Z" fill="#91b7ab" stroke="#597b75" stroke-width="2" stroke-linejoin="round" stroke-linecap="round" /><path d="M62,83 L55,104 L68,101 L62,114" fill="none" stroke="#d0e6bf" stroke-width="2" stroke-linejoin="round" stroke-linecap="round" /><path d="M17,102 q14,-10 5,-31 m1,14 l12,-8" fill="none" stroke="#6a8b50" stroke-width="3" stroke-linejoin="round" stroke-linecap="round" /></svg>
