<svg xmlns="http://www.w3.org/2000/svg" width="240" height="280" viewBox="0 0 240 280"><defs>
<linearGradient id="stone" x2=".3" y2="1"><stop stop-color="#f3dfaa"/><stop offset="1" stop-color="#bca47a"/></linearGradient>
<linearGradient id="roof" x2=".6" y2="1"><stop stop-color="#5493a4"/><stop offset="1" stop-color="#27475b"/></linearGradient>
<linearGradient id="leaf" x2=".6" y2="1"><stop stop-color="#afc36b"/><stop offset=".45" stop-color="#608c4c"/><stop offset="1" stop-color="#2d5741"/></linearGradient>
<linearGradient id="water" x2="0" y2="1"><stop stop-color="#84d5ca"/><stop offset="1" stop-color="#367c8a"/></linearGradient>
</defs><defs><linearGradient id="ivory" x2=".4" y2="1"><stop stop-color="#fcf0d5"/><stop offset=".55" stop-color="#d6c9a6"/><stop offset="1" stop-color="#a69d86"/></linearGradient><linearGradient id="gold" x2=".4" y2="1"><stop stop-color="#ffe5a0"/><stop offset=".5" stop-color="#c9a259"/><stop offset="1" stop-color="#876d39"/></linearGradient><linearGradient id="velvet" x2=".3" y2="1"><stop stop-color="#a14751"/><stop offset=".55" stop-color="#713340"/><stop offset="1" stop-color="#402932"/></linearGradient><linearGradient id="blue" x2=".3" y2="1"><stop stop-color="#75a3b3"/><stop offset=".5" stop-color="#396878"/><stop offset="1" stop-color="#294d60"/></linearGradient><radialGradient id="light"><stop stop-color="#fff2af" stop-opacity=".45"/><stop offset="1" stop-color="#ffe8a0" stop-opacity="0"/></radialGradient></defs><ellipse cx="129" cy="255" rx="76" ry="18.24" fill="#233d30" fill-opacity="0.188" stroke="none" stroke-width="1"/><ellipse cx="120" cy="255" rx="49.4" ry="9.88" fill="#243229" fill-opacity="0.251" stroke="none" stroke-width="1"/><rect x="26" y="16" width="189" height="234" rx="6" fill="#6e5942" stroke="#c2a268" stroke-width="4"/><path d="M20,18 Q120,-8 221,18 L215,39 L26,39 Z" fill="url(#gold)" stroke="#34443e" stroke-width="2" stroke-linejoin="round" stroke-linecap="round" /><rect x="40" y="48" width="13" height="44" rx="2" fill="#7c8060" stroke="#34443e" stroke-width="1"/><path d="M43,84 L50,84" fill="none" stroke="#e4ce8c" stroke-width="2" stroke-linejoin="round" stroke-linecap="round" /><rect x="57" y="48" width="13" height="44" rx="2" fill="#567d81" stroke="#34443e" stroke-width="1"/><path d="M60,84 L67,84" fill="none" stroke="#e4ce8c" stroke-width="2" stroke-linejoin="round" stroke-linecap="round" /><rect x="74" y="62" width="13" height="30" rx="2" fill="#7c8060" stroke="#34443e" stroke-width="1"/><path d="M77,84 L84,84" fill="none" stroke="#e4ce8c" stroke-width="2" stroke-linejoin="round" stroke-linecap="round" /><rect x="91" y="56" width="13" height="36" rx="2" fill="#b59965" stroke="#34443e" stroke-width="1"/><path d="M94,84 L101,84" fill="none" stroke="#e4ce8c" stroke-width="2" stroke-linejoin="round" stroke-linecap="round" /><rect x="108" y="54" width="13" height="38" rx="2" fill="#7c8060" stroke="#34443e" stroke-width="1"/><path d="M111,84 L118,84" fill="none" stroke="#e4ce8c" stroke-width="2" stroke-linejoin="round" stroke-linecap="round" /><rect x="125" y="60" width="13" height="32" rx="2" fill="#a16b62" stroke="#34443e" stroke-width="1"/><path d="M128,84 L135,84" fill="none" stroke="#e4ce8c" stroke-width="2" stroke-linejoin="round" stroke-linecap="round" /><rect x="142" y="58" width="13" height="34" rx="2" fill="#b59965" stroke="#34443e" stroke-width="1"/><path d="M145,84 L152,84" fill="none" stroke="#e4ce8c" stroke-width="2" stroke-linejoin="round" stroke-linecap="round" /><rect x="159" y="62" width="13" height="30" rx="2" fill="#a16b62" stroke="#34443e" stroke-width="1"/><path d="M162,84 L169,84" fill="none" stroke="#e4ce8c" stroke-width="2" stroke-linejoin="round" stroke-linecap="round" /><rect x="176" y="53" width="13" height="39" rx="2" fill="#b59965" stroke="#34443e" stroke-width="1"/><path d="M179,84 L186,84" fill="none" stroke="#e4ce8c" stroke-width="2" stroke-linejoin="round" stroke-linecap="round" /><rect x="193" y="48" width="13" height="44" rx="2" fill="#567d81" stroke="#34443e" stroke-width="1"/><path d="M196,84 L203,84" fill="none" stroke="#e4ce8c" stroke-width="2" stroke-linejoin="round" stroke-linecap="round" /><rect x="32" y="96" width="176" height="9" rx="0" fill="url(#gold)" stroke="#34443e" stroke-width="1"/><rect x="40" y="124" width="13" height="31" rx="2" fill="#567d81" stroke="#34443e" stroke-width="1"/><path d="M43,147 L50,147" fill="none" stroke="#e4ce8c" stroke-width="2" stroke-linejoin="round" stroke-linecap="round" /><rect x="57" y="114" width="13" height="41" rx="2" fill="#b59965" stroke="#34443e" stroke-width="1"/><path d="M60,147 L67,147" fill="none" stroke="#e4ce8c" stroke-width="2" stroke-linejoin="round" stroke-linecap="round" /><rect x="74" y="119" width="13" height="36" rx="2" fill="#567d81" stroke="#34443e" stroke-width="1"/><path d="M77,147 L84,147" fill="none" stroke="#e4ce8c" stroke-width="2" stroke-linejoin="round" stroke-linecap="round" /><rect x="91" y="117" width="13" height="38" rx="2" fill="#b59965" stroke="#34443e" stroke-width="1"/><path d="M94,147 L101,147" fill="none" stroke="#e4ce8c" stroke-width="2" stroke-linejoin="round" stroke-linecap="round" /><rect x="108" y="120" width="13" height="35" rx="2" fill="#567d81" stroke="#34443e" stroke-width="1"/><path d="M111,147 L118,147" fill="none" stroke="#e4ce8c" stroke-width="2" stroke-linejoin="round" stroke-linecap="round" /><rect x="125" y="122" width="13" height="33" rx="2" fill="#567d81" stroke="#34443e" stroke-width="1"/><path d="M128,147 L135,147" fill="none" stroke="#e4ce8c" stroke-width="2" stroke-linejoin="round" stroke-linecap="round" /><rect x="142" y="116" width="13" height="39" rx="2" fill="#7c8060" stroke="#34443e" stroke-width="1"/><path d="M145,147 L152,147" fill="none" stroke="#e4ce8c" stroke-width="2" stroke-linejoin="round" stroke-linecap="round" /><rect x="159" y="115" width="13" height="40" rx="2" fill="#a16b62" stroke="#34443e" stroke-width="1"/><path d="M162,147 L169,147" fill="none" stroke="#e4ce8c" stroke-width="2" stroke-linejoin="round" stroke-linecap="round" /><rect x="176" y="116" width="13" height="39" rx="2" fill="#a16b62" stroke="#34443e" stroke-width="1"/><path d="M179,147 L186,147" fill="none" stroke="#e4ce8c" stroke-width="2" stroke-linejoin="round" stroke-linecap="round" /><rect x="193" y="114" width="13" height="41" rx="2" fill="#7c8060" stroke="#34443e" stroke-width="1"/><path d="M196,147 L203,147" fill="none" stroke="#e4ce8c" stroke-width="2" stroke-linejoin="round" stroke-linecap="round" /><rect x="32" y="159" width="176" height="9" rx="0" fill="url(#gold)" stroke="#34443e" stroke-width="1"/><rect x="40" y="176" width="13" height="39" rx="2" fill="#7c8060" stroke="#34443e" stroke-width="1"/><path d="M43,207 L50,207" fill="none" stroke="#e4ce8c" stroke-width="2" stroke-linejoin="round" stroke-linecap="round" /><rect x="57" y="176" width="13" height="39" rx="2" fill="#7c8060" stroke="#34443e" stroke-width="1"/><path d="M60,207 L67,207" fill="none" stroke="#e4ce8c" stroke-width="2" stroke-linejoin="round" stroke-linecap="round" /><rect x="74" y="175" width="13" height="40" rx="2" fill="#7c8060" stroke="#34443e" stroke-width="1"/><path d="M77,207 L84,207" fill="none" stroke="#e4ce8c" stroke-width="2" stroke-linejoin="round" stroke-linecap="round" /><rect x="91" y="176" width="13" height="39" rx="2" fill="#567d81" stroke="#34443e" stroke-width="1"/><path d="M94,207 L101,207" fill="none" stroke="#e4ce8c" stroke-width="2" stroke-linejoin="round" stroke-linecap="round" /><rect x="108" y="172" width="13" height="43" rx="2" fill="#b59965" stroke="#34443e" stroke-width="1"/><path d="M111,207 L118,207" fill="none" stroke="#e4ce8c" stroke-width="2" stroke-linejoin="round" stroke-linecap="round" /><rect x="125" y="183" width="13" height="32" rx="2" fill="#b59965" stroke="#34443e" stroke-width="1"/><path d="M128,207 L135,207" fill="none" stroke="#e4ce8c" stroke-width="2" stroke-linejoin="round" stroke-linecap="round" /><rect x="142" y="176" width="13" height="39" rx="2" fill="#b59965" stroke="#34443e" stroke-width="1"/><path d="M145,207 L152,207" fill="none" stroke="#e4ce8c" stroke-width="2" stroke-linejoin="round" stroke-linecap="round" /><rect x="159" y="175" width="13" height="40" rx="2" fill="#a16b62" stroke="#34443e" stroke-width="1"/><path d="M162,207 L169,207" fill="none" stroke="#e4ce8c" stroke-width="2" stroke-linejoin="round" stroke-linecap="round" /><rect x="176" y="183" width="13" height="32" rx="2" fill="#a16b62" stroke="#34443e" stroke-width="1"/><path d="M179,207 L186,207" fill="none" stroke="#e4ce8c" stroke-width="2" stroke-linejoin="round" stroke-linecap="round" /><rect x="193" y="177" width="13" height="38" rx="2" fill="#7c8060" stroke="#34443e" stroke-width="1"/><path d="M196,207 L203,207" fill="none" stroke="#e4ce8c" stroke-width="2" stroke-linejoin="round" stroke-linecap="round" /><rect x="32" y="219" width="176" height="9" rx="0" fill="url(#gold)" stroke="#34443e" stroke-width="1"/></svg>
