<svg xmlns="http://www.w3.org/2000/svg" width="230" height="210" viewBox="0 0 230 210"><defs>
<linearGradient id="stone" x2=".3" y2="1"><stop stop-color="#f3dfaa"/><stop offset="1" stop-color="#bca47a"/></linearGradient>
<linearGradient id="roof" x2=".6" y2="1"><stop stop-color="#5493a4"/><stop offset="1" stop-color="#27475b"/></linearGradient>
<linearGradient id="leaf" x2=".6" y2="1"><stop stop-color="#afc36b"/><stop offset=".45" stop-color="#608c4c"/><stop offset="1" stop-color="#2d5741"/></linearGradient>
<linearGradient id="water" x2="0" y2="1"><stop stop-color="#84d5ca"/><stop offset="1" stop-color="#367c8a"/></linearGradient>
</defs><defs><linearGradient id="wood" x2=".2" y2="1"><stop stop-color="#be8751"/><stop offset="1" stop-color="#684832"/></linearGradient><linearGradient id="metal" x2=".6" y2="1"><stop stop-color="#a3b4b0"/><stop offset=".5" stop-color="#586d70"/><stop offset="1" stop-color="#2d424a"/></linearGradient><radialGradient id="glow"><stop stop-color="#ffdd80" stop-opacity=".6"/><stop offset="1" stop-color="#ee7b42" stop-opacity="0"/></radialGradient></defs><ellipse cx="124" cy="187" rx="80" ry="19.2" fill="#233d30" fill-opacity="0.188" stroke="none" stroke-width="1"/><ellipse cx="115" cy="187" rx="52.0" ry="10.4" fill="#243229" fill-opacity="0.251" stroke="none" stroke-width="1"/><path d="M72,131 L83,185 L147,185 L159,131 Z" fill="#ad7049" stroke="#29312f" stroke-width="3" stroke-linejoin="round" stroke-linecap="round" /><ellipse cx="115" cy="132" rx="43" ry="13" fill="#d8a16a" fill-opacity="1.000" stroke="#29312f" stroke-width="2"/><path d="M115,136 Q77,83 77,73" fill="none" stroke="#537655" stroke-width="4" stroke-linejoin="round" stroke-linecap="round" /><ellipse cx="77" cy="73" rx="20" ry="10" fill="#799356" fill-opacity="1.000" stroke="#29312f" stroke-width="1"/><path d="M115,136 Q109,56 109,46" fill="none" stroke="#537655" stroke-width="4" stroke-linejoin="round" stroke-linecap="round" /><ellipse cx="109" cy="46" rx="20" ry="10" fill="#799356" fill-opacity="1.000" stroke="#29312f" stroke-width="1"/><path d="M115,136 Q137,76 137,66" fill="none" stroke="#537655" stroke-width="4" stroke-linejoin="round" stroke-linecap="round" /><ellipse cx="137" cy="66" rx="20" ry="10" fill="#799356" fill-opacity="1.000" stroke="#29312f" stroke-width="1"/><path d="M115,136 Q147,116 147,106" fill="none" stroke="#537655" stroke-width="4" stroke-linejoin="round" stroke-linecap="round" /><ellipse cx="147" cy="106" rx="20" ry="10" fill="#799356" fill-opacity="1.000" stroke="#29312f" stroke-width="1"/><path d="M115,136 Q93,115 93,105" fill="none" stroke="#537655" stroke-width="4" stroke-linejoin="round" stroke-linecap="round" /><ellipse cx="93" cy="105" rx="20" ry="10" fill="#799356" fill-opacity="1.000" stroke="#29312f" stroke-width="1"/></svg>
