<svg xmlns="http://www.w3.org/2000/svg" width="230" height="210" viewBox="0 0 230 210"><defs>
<linearGradient id="stone" x2=".3" y2="1"><stop stop-color="#f3dfaa"/><stop offset="1" stop-color="#bca47a"/></linearGradient>
<linearGradient id="roof" x2=".6" y2="1"><stop stop-color="#5493a4"/><stop offset="1" stop-color="#27475b"/></linearGradient>
<linearGradient id="leaf" x2=".6" y2="1"><stop stop-color="#afc36b"/><stop offset=".45" stop-color="#608c4c"/><stop offset="1" stop-color="#2d5741"/></linearGradient>
<linearGradient id="water" x2="0" y2="1"><stop stop-color="#84d5ca"/><stop offset="1" stop-color="#367c8a"/></linearGradient>
</defs><defs><linearGradient id="wood" x2=".2" y2="1"><stop stop-color="#be8751"/><stop offset="1" stop-color="#684832"/></linearGradient><linearGradient id="metal" x2=".6" y2="1"><stop stop-color="#a3b4b0"/><stop offset=".5" stop-color="#586d70"/><stop offset="1" stop-color="#2d424a"/></linearGradient><radialGradient id="glow"><stop stop-color="#ffdd80" stop-opacity=".6"/><stop offset="1" stop-color="#ee7b42" stop-opacity="0"/></radialGradient></defs><ellipse cx="124" cy="187" rx="80" ry="19.2" fill="#233d30" fill-opacity="0.188" stroke="none" stroke-width="1"/><ellipse cx="115" cy="187" rx="52.0" ry="10.4" fill="#243229" fill-opacity="0.251" stroke="none" stroke-width="1"/><rect x="20" y="89" width="190" height="96" rx="4" fill="url(#wood)" stroke="#29312f" stroke-width="3"/><rect x="24" y="105" width="27" height="70" rx="3" fill="#8f6240" stroke="#533d2e" stroke-width="1"/><rect x="55" y="105" width="27" height="70" rx="3" fill="#8f6240" stroke="#533d2e" stroke-width="1"/><rect x="86" y="105" width="27" height="70" rx="3" fill="#8f6240" stroke="#533d2e" stroke-width="1"/><rect x="117" y="105" width="27" height="70" rx="3" fill="#8f6240" stroke="#533d2e" stroke-width="1"/><rect x="148" y="105" width="27" height="70" rx="3" fill="#8f6240" stroke="#533d2e" stroke-width="1"/><rect x="179" y="105" width="27" height="70" rx="3" fill="#8f6240" stroke="#533d2e" stroke-width="1"/><path d="M12,70 L198,64 L221,86 L22,94 Z" fill="#d0a375" stroke="#29312f" stroke-width="3" stroke-linejoin="round" stroke-linecap="round" /><path d="M23,83 L200,77" fill="none" stroke="#edcd92" stroke-width="2" stroke-linejoin="round" stroke-linecap="round" /><path d="M51,62 l19,-28 l8,5 l-19,28 Z" fill="url(#metal)" stroke="#29312f" stroke-width="2" stroke-linejoin="round" stroke-linecap="round" /><rect x="84" y="48" width="53" height="13" rx="2" fill="url(#metal)" stroke="#29312f" stroke-width="2"/><path d="M165,67 l-3,-27 l12,-5 l10,8 l-5,15 Z" fill="#9f774e" stroke="#29312f" stroke-width="2" stroke-linejoin="round" stroke-linecap="round" /></svg>
