<svg xmlns="http://www.w3.org/2000/svg" width="96" height="96" viewBox="0 0 96 96"><defs><linearGradient id="g" x2="0" y2="1"><stop stop-color="#e9c889"/><stop offset=".4" stop-color="#a97837"/><stop offset="1" stop-color="#f5c775"/></linearGradient><linearGradient id="r" x2="0" y2="1"><stop stop-color="#772621"/><stop offset=".6" stop-color="#3d1514"/><stop offset="1" stop-color="#651a17"/></linearGradient></defs><path d="M12 2H84L94 12V84L84 94H12L2 84V12Z" fill="#241113" stroke="#1a0b0c" stroke-width="4"/><path d="M12 3H84L93 12V84L84 93H12L3 84V12Z" fill="url(#r)" stroke="url(#g)" stroke-width="2"/><path d="M14 7H82L89 14V82L82 89H14L7 82V14Z" fill="#2c1114" stroke="#ad4830" stroke-width="1.5"/><path d="M13 3L9 10L3 13M83 3L87 10L93 13M3 83L10 87L13 93M83 93L87 86L93 83" fill="none" stroke="#edc98a" stroke-width="1.5"/></svg>